<?xml version="1.0" encoding="utf-8"?>
<!-- Generator: Adobe Illustrator 21.0.0, SVG Export Plug-In . SVG Version: 6.00 Build 0)  -->
<svg version="1.1" id="图层_1" xmlns="http://www.w3.org/2000/svg" xmlns:xlink="http://www.w3.org/1999/xlink" x="0px" y="0px"
	 viewBox="0 0 98.4 23.7" style="enable-background:new 0 0 98.4 23.7;" xml:space="preserve">
<style type="text/css">
	.st0{fill:#898989;}
	.st1{fill:#002F7B;}
	.st2{fill:#4A94BD;}
</style>
<g id="XMLID_110_">
	<g id="XMLID_177_">
		<g id="XMLID_195_">
			<path id="XMLID_196_" d="M40.9,8.2c0-0.6,0-1.2,0-1.8c0.9,0,1.7,0,2.6,0c0,0.6,0,1.2,0,1.8c1.9,0,3.8,0,5.7,0
				c-0.3,0.5-0.6,1.1-0.8,1.6c-1.6,0-3.2,0-4.9,0c0,1.2,0,2.3,0,3.5c0,0.8,0,1.4-0.3,1.8c-0.7,0.9-2.2,0.8-3.8,0.8c0-0.5,0-1,0-1.5
				c0.5,0,1,0,1.5,0c0-1.5,0-3,0-4.5c-2,0-4,0-6,0c0-0.5,0-1,0-1.5c0.5-0.9,1-1.9,1.5-2.8c0,0,0,0,0,0c-0.5,0-1.1,0-1.6,0
				c0-0.6,0-1.1,0-1.7c0.8,0,1.7,0,2.5,0c0.1-0.2,0.2-0.4,0.3-0.5c0.9,0,1.9,0,2.8,0c-0.1,0.2-0.2,0.4-0.3,0.5c3,0,6,0,9,0
				c-0.3,0.6-0.6,1.1-0.8,1.7c-3,0-6,0-9.1,0c-0.5,0.9-1,1.8-1.5,2.7C38.9,8.2,39.9,8.2,40.9,8.2z"/>
		</g>
		<g id="XMLID_193_">
			<path id="XMLID_194_" d="M96.3,3.2c0,0.5,0,0.9,0,1.4c0.4,0,0.8,0,1.2,0c-0.3,0.6-0.6,1.1-0.8,1.7c-0.1,0-0.2,0-0.4,0
				c0,1.9,0,3.8,0,5.7c0,1.9,0.2,2.8-1,3.7c-0.7,0.5-1.9,0.3-3.3,0.3c0-0.5,0-1,0-1.5c1.2,0,0.6,0,1.7,0c0-2.7,0-5.4,0-8.1
				c-2.2,0-4.5,0-6.7,0c0-0.6,0-1.1,0-1.7c2.2,0,4.5,0,6.7,0c0-0.5,0-0.9,0-1.4C94.6,3.2,95.4,3.2,96.3,3.2z"/>
		</g>
		<g id="XMLID_191_">
			<path id="XMLID_192_" d="M84,8.1c-0.4,0-0.8,0-1.2,0c0.5-1.1,1.7-4.4,1.9-4.6c0.9,0,1.8,0,2.7,0c-0.3,0.7-1,2.2-1,2.2l0,9.5
				c0,0-2,0.8-2.4,0.9C84,13.5,84,10.8,84,8.1z"/>
		</g>
		<g id="XMLID_189_">
			<path id="XMLID_190_" d="M87.9,7.2c0.9,0,1.9,0,2.8,0c0.8,1.7,1.5,3.3,2.3,5c-0.9,0-1.9,0-2.8,0C89.4,10.5,88.7,8.9,87.9,7.2z"/>
		</g>
		<g id="XMLID_184_">
			<g id="XMLID_185_">
				<path id="XMLID_186_" d="M75.4,5.9h4.9c0.3-0.6,0.6-1.1,0.9-1.7h-5.8v-1h-2.6v1h-5.2v1.7h5.2v1.3h-5.4v1.2
					c1.6,1.3,3.2,2.7,4.8,4c0,0.1-1.2,1.2-1.9,1.6c-0.2,0.1-0.6,0.3-1.1,0.3c-0.6,0.1-1.3,0.1-1.7,0.1c0,0.6,0,1,0,1.6
					c1.1,0,2.8,0,3.7-0.2c0.4-0.1,0.7-0.4,1-0.6c0.7-0.4,1.3-0.9,2-1.3c1,0.6,1.8,1.5,3,1.9C78,16,79.7,16,80.8,16
					c0-0.6,0-1.1,0-1.6c-0.5,0-1.1,0.1-1.7,0c-0.4-0.1-0.8-0.2-1-0.3c-0.7-0.5-1.4-1-2.1-1.5c0,0,0,0,0,0c1-0.9,2.1-1.7,3.1-2.6
					c0.6-0.5,1.2-1,1.8-1.6V7.2h-5.5V5.9z M76.7,9.1L76.7,9.1c-0.8,0.6-1.6,1.3-2.4,1.9c-0.4,0.1-0.6-0.3-0.8-0.4
					c-0.6-0.5-1.3-1-1.9-1.5C73.3,9,75,9.1,76.7,9.1z"/>
			</g>
		</g>
		<g id="XMLID_182_">
			<path id="XMLID_183_" d="M37.4,10.7c0.9,0,1.9,0,2.8,0c-0.9,1.7-1.8,3.5-2.7,5.2c-0.9,0-1.8,0-2.8,0
				C35.6,14.2,36.5,12.4,37.4,10.7z"/>
		</g>
		<g id="XMLID_180_">
			<path id="XMLID_181_" d="M44.2,10.7c0.9,0,1.9,0,2.8,0c0.8,1.7,1.6,3.4,2.4,5.1c-0.9,0-1.9,0-2.8,0C45.8,14.1,45,12.4,44.2,10.7z
				"/>
		</g>
		<g id="XMLID_178_">
			<path id="XMLID_179_" d="M56.7,3.2c1,0,2,0,3.1,0c0,0.4,0,0.7,0,1.1c2,0,4,0,6,0c-0.3,0.5-0.6,1-0.9,1.6c-2.2,0-4.3,0-6.4,0
				c-0.5,0-1,0-1.6,0c-0.1,0-0.4,0-0.5,0.1c0,0-0.1,1.3-0.1,1.4c2.6,0,5.3,0,7.9,0c0,1.8,0,3.6,0,5.3c0,1.5,0.1,2.4-0.8,3
				c-0.2,0.1-0.5,0.2-0.7,0.3c-1.6,0-1.1,0-2.7,0c0-0.5,0-1,0-1.6c1.2,0,0.3,0,1.5,0c0-1.9,0-3.7,0-5.6c-1.8,0-3.6,0-5.3,0
				c-0.3,2.1-0.5,4.2-0.8,6.3c-1,0.3-1.9,0.7-2.9,1c0.5-3.4,0.9-6.9,1.4-10.3c-1,0-1.9,0-2.9,0c0-0.5,0-1,0-1.6c2,0,3.9,0,5.9,0
				C56.7,3.9,56.7,3.5,56.7,3.2z"/>
		</g>
	</g>
	<g id="XMLID_116_">
		<g id="XMLID_174_">
			<path id="XMLID_175_" class="st0" d="M34.1,18.4h1l0.8,2.2l0.9-2.2h0.6l0.8,2.2l0.8-2.2h1l-1.4,3.9h-0.6L37,20.1l-0.9,2.2h-0.6
				L34.1,18.4z"/>
		</g>
		<g id="XMLID_171_">
			<path id="XMLID_172_" class="st0" d="M40,18.4h1l0.8,2.2l0.9-2.2h0.6l0.8,2.2l0.8-2.2h1l-1.4,3.9h-0.6l-0.8-2.2L42,22.3h-0.6
				L40,18.4z"/>
		</g>
		<g id="XMLID_168_">
			<path id="XMLID_169_" class="st0" d="M45.9,18.4h1l0.8,2.2l0.9-2.2h0.6l0.8,2.2l0.8-2.2h1l-1.4,3.9h-0.6l-0.8-2.2L48,22.3h-0.6
				L45.9,18.4z"/>
		</g>
		<g id="XMLID_165_">
			<path id="XMLID_166_" class="st0" d="M52.8,21.3c0.2,0,0.3,0.1,0.4,0.2c0.1,0.1,0.2,0.2,0.2,0.4c0,0.2-0.1,0.3-0.2,0.4
				c-0.1,0.1-0.2,0.2-0.4,0.2c-0.2,0-0.3-0.1-0.4-0.2c-0.1-0.1-0.2-0.2-0.2-0.4c0-0.2,0.1-0.3,0.2-0.4
				C52.5,21.3,52.7,21.3,52.8,21.3z"/>
		</g>
		<g id="XMLID_161_">
			<path id="XMLID_162_" class="st0" d="M58.3,20.6h-3.2c0,0.3,0.2,0.5,0.4,0.7c0.2,0.2,0.5,0.2,0.8,0.2c0.4,0,0.7-0.1,1-0.4
				l0.8,0.4c-0.2,0.3-0.5,0.5-0.7,0.7c-0.3,0.1-0.6,0.2-1,0.2c-0.6,0-1.1-0.2-1.5-0.6c-0.4-0.4-0.6-0.9-0.6-1.5
				c0-0.6,0.2-1.1,0.6-1.5c0.4-0.4,0.9-0.6,1.5-0.6c0.6,0,1.1,0.2,1.5,0.6c0.4,0.4,0.6,0.9,0.6,1.6L58.3,20.6z M57.3,19.8
				c-0.1-0.2-0.2-0.4-0.4-0.5c-0.2-0.1-0.4-0.2-0.7-0.2c-0.3,0-0.5,0.1-0.7,0.2c-0.1,0.1-0.2,0.3-0.4,0.5H57.3z"/>
		</g>
		<g id="XMLID_157_">
			<path id="XMLID_158_" class="st0" d="M62,18.4h1v3.9h-1v-0.4c-0.2,0.2-0.4,0.3-0.6,0.4c-0.2,0.1-0.4,0.1-0.6,0.1
				c-0.5,0-0.9-0.2-1.3-0.6c-0.4-0.4-0.6-0.9-0.6-1.5c0-0.6,0.2-1.1,0.5-1.5c0.4-0.4,0.8-0.6,1.3-0.6c0.2,0,0.5,0,0.7,0.1
				c0.2,0.1,0.4,0.2,0.6,0.4V18.4z M61,19.2c-0.3,0-0.6,0.1-0.8,0.3c-0.2,0.2-0.3,0.5-0.3,0.8c0,0.3,0.1,0.6,0.3,0.8
				c0.2,0.2,0.5,0.3,0.8,0.3c0.3,0,0.6-0.1,0.8-0.3c0.2-0.2,0.3-0.5,0.3-0.8c0-0.3-0.1-0.6-0.3-0.8C61.5,19.3,61.3,19.2,61,19.2z"/>
		</g>
		<g id="XMLID_154_">
			<path id="XMLID_155_" class="st0" d="M66.4,18.9l-0.6,0.6c-0.3-0.2-0.5-0.4-0.7-0.4c-0.1,0-0.2,0-0.3,0.1c-0.1,0-0.1,0.1-0.1,0.2
				c0,0.1,0,0.1,0.1,0.1c0,0,0.1,0.1,0.3,0.2l0.4,0.2c0.4,0.2,0.6,0.4,0.8,0.6c0.1,0.2,0.2,0.4,0.2,0.7c0,0.3-0.1,0.6-0.4,0.9
				c-0.3,0.2-0.6,0.4-1,0.4c-0.6,0-1-0.2-1.4-0.7l0.6-0.7c0.1,0.1,0.3,0.2,0.4,0.3c0.2,0.1,0.3,0.1,0.4,0.1c0.1,0,0.2,0,0.3-0.1
				c0.1-0.1,0.1-0.1,0.1-0.2c0-0.2-0.1-0.3-0.4-0.4l-0.3-0.2c-0.6-0.3-1-0.7-1-1.2c0-0.3,0.1-0.6,0.4-0.8c0.2-0.2,0.5-0.3,0.9-0.3
				c0.3,0,0.5,0.1,0.7,0.2C66.1,18.5,66.3,18.7,66.4,18.9z"/>
		</g>
		<g id="XMLID_150_">
			<path id="XMLID_151_" class="st0" d="M67.6,16.7c0.2,0,0.3,0.1,0.4,0.2c0.1,0.1,0.2,0.3,0.2,0.5c0,0.2-0.1,0.3-0.2,0.5
				C68,18,67.8,18,67.7,18c-0.2,0-0.3-0.1-0.5-0.2c-0.1-0.1-0.2-0.3-0.2-0.5c0-0.2,0.1-0.3,0.2-0.4C67.3,16.8,67.5,16.7,67.6,16.7z
				 M67.2,18.4h1v3.9h-1V18.4z"/>
		</g>
		<g id="XMLID_146_">
			<path id="XMLID_147_" class="st0" d="M70,18.4v0.4c0.2-0.2,0.4-0.3,0.6-0.4c0.2-0.1,0.4-0.1,0.7-0.1c0.5,0,0.9,0.2,1.3,0.6
				c0.4,0.4,0.5,0.9,0.5,1.5c0,0.6-0.2,1.1-0.6,1.5c-0.4,0.4-0.8,0.6-1.3,0.6c-0.2,0-0.4,0-0.6-0.1c-0.2-0.1-0.4-0.2-0.6-0.4v1.9h-1
				v-5.4H70z M71.1,19.2c-0.3,0-0.6,0.1-0.8,0.3C70.1,19.7,70,20,70,20.3c0,0.4,0.1,0.6,0.3,0.8c0.2,0.2,0.5,0.3,0.8,0.3
				c0.3,0,0.6-0.1,0.8-0.3c0.2-0.2,0.3-0.5,0.3-0.8c0-0.3-0.1-0.6-0.3-0.8C71.6,19.3,71.4,19.2,71.1,19.2z"/>
		</g>
		<g id="XMLID_142_">
			<path id="XMLID_143_" class="st0" d="M76.8,18.4h1v3.9h-1v-0.4c-0.2,0.2-0.4,0.3-0.6,0.4c-0.2,0.1-0.4,0.1-0.6,0.1
				c-0.5,0-0.9-0.2-1.3-0.6c-0.4-0.4-0.6-0.9-0.6-1.5c0-0.6,0.2-1.1,0.5-1.5c0.4-0.4,0.8-0.6,1.3-0.6c0.2,0,0.5,0,0.7,0.1
				c0.2,0.1,0.4,0.2,0.6,0.4V18.4z M75.8,19.2c-0.3,0-0.6,0.1-0.8,0.3c-0.2,0.2-0.3,0.5-0.3,0.8c0,0.3,0.1,0.6,0.3,0.8
				c0.2,0.2,0.5,0.3,0.8,0.3c0.3,0,0.6-0.1,0.8-0.3c0.2-0.2,0.3-0.5,0.3-0.8c0-0.3-0.1-0.6-0.3-0.8C76.4,19.3,76.1,19.2,75.8,19.2z"
				/>
		</g>
		<g id="XMLID_139_">
			<path id="XMLID_140_" class="st0" d="M78.4,18.4h1l1,2.5l1.1-2.5h1l-2.5,5.4h-1l0.8-1.7L78.4,18.4z"/>
		</g>
		<g id="XMLID_132_">
			<path id="XMLID_133_" class="st0" d="M83.7,21.3c0.2,0,0.3,0.1,0.4,0.2c0.1,0.1,0.2,0.2,0.2,0.4c0,0.2-0.1,0.3-0.2,0.4
				c-0.1,0.1-0.2,0.2-0.4,0.2c-0.2,0-0.3-0.1-0.4-0.2c-0.1-0.1-0.2-0.2-0.2-0.4c0-0.2,0.1-0.3,0.2-0.4
				C83.4,21.3,83.5,21.3,83.7,21.3z"/>
		</g>
		<g id="XMLID_129_">
			<path id="XMLID_130_" class="st0" d="M85.2,18.4h1v0.4c0.2-0.2,0.4-0.3,0.6-0.4c0.2-0.1,0.4-0.1,0.6-0.1c0.4,0,0.7,0.1,1,0.4
				c0.2,0.2,0.3,0.6,0.3,1v2.6h-1v-1.7c0-0.5,0-0.8-0.1-0.9c0-0.2-0.1-0.3-0.2-0.3c-0.1-0.1-0.2-0.1-0.4-0.1c-0.2,0-0.4,0.1-0.5,0.2
				c-0.1,0.1-0.2,0.3-0.3,0.6c0,0.1,0,0.4,0,0.8v1.6h-1V18.4z"/>
		</g>
		<g id="XMLID_124_">
			<path id="XMLID_125_" class="st0" d="M93.6,20.6h-3.2c0,0.3,0.2,0.5,0.4,0.7c0.2,0.2,0.5,0.2,0.8,0.2c0.4,0,0.7-0.1,0.9-0.4
				l0.8,0.4c-0.2,0.3-0.5,0.5-0.7,0.7c-0.3,0.1-0.6,0.2-1,0.2c-0.6,0-1.1-0.2-1.5-0.6c-0.4-0.4-0.6-0.9-0.6-1.5
				c0-0.6,0.2-1.1,0.6-1.5c0.4-0.4,0.9-0.6,1.5-0.6c0.6,0,1.1,0.2,1.5,0.6c0.4,0.4,0.6,0.9,0.6,1.6L93.6,20.6z M92.6,19.8
				c-0.1-0.2-0.2-0.4-0.4-0.5c-0.2-0.1-0.4-0.2-0.7-0.2c-0.3,0-0.5,0.1-0.7,0.2c-0.1,0.1-0.3,0.3-0.4,0.5H92.6z"/>
		</g>
		<g id="XMLID_117_">
			<path id="XMLID_119_" class="st0" d="M94.5,16.9h1v1.4h0.6v0.8h-0.6v3.1h-1v-3.1H94v-0.8h0.5V16.9z"/>
		</g>
	</g>
	<g id="XMLID_113_">
		<path id="XMLID_114_" class="st1" d="M29.6,9.6c-2.1-2.1-7.1-7.1-7.5-7.5c-0.5-0.5-0.9-1.1-2-1c-0.4,0.1-0.5,0.1-0.8,0.3
			c-0.3,0.2-8.7,8.7-8.8,8.8c-0.5,0.5-1.2,1.1-0.9,2.2c0.1,0.3,0.2,0.4,0.4,0.7c0.6,0.6,1.6,1.6,1.6,1.6L11,15.3l4,0.6l-0.7-4
			l-0.6,0.6l-0.5-0.6l7.2-7.2l7.2,7.2l-7.2,7.2l-2.1-2.1L16,19.3c0,0,2.1,2.1,2.6,2.6c0.3,0.3,0.6,0.7,1,0.8
			c0.3,0.1,0.8,0.2,1.2,0.1c0.6-0.2,0.9-0.6,1.3-0.9c0.5-0.5,7.6-7.6,8.1-8.1c0.3-0.3,0.6-0.5,0.8-0.8C31.9,11.5,30.3,10.4,29.6,9.6
			z"/>
	</g>
	<g id="XMLID_111_">
		<path id="XMLID_112_" class="st2" d="M2.3,14.4c2.1,2.1,7.1,7.1,7.5,7.5c0.5,0.5,0.9,1.1,2,1c0.4-0.1,0.5-0.1,0.8-0.3
			c0.3-0.2,8.8-8.7,8.9-8.8c0.5-0.5,1.2-1.1,1-2.2c-0.1-0.3-0.2-0.4-0.4-0.7c-0.6-0.6-1.6-1.6-1.6-1.6L21,8.8l-4-0.6l0.7,4l0.6-0.6
			l0.5,0.6l-7.2,7.2L4.4,12l7.2-7.2l2.1,2.1l2.2-2.2c0,0-2.1-2.1-2.6-2.6c-0.3-0.3-0.6-0.7-1-0.8c-0.3-0.1-0.8-0.2-1.2-0.1
			c-0.6,0.2-1.3,0.9-1.3,0.9s-7.6,7.6-8.1,8.1C1.5,10.5,1.2,10.7,1,11C0,12.5,1.6,13.6,2.3,14.4z"/>
	</g>
</g>
</svg>
