<?xml version="1.0" encoding="utf-8"?>
<!-- Generator: Adobe Illustrator 21.0.0, SVG Export Plug-In . SVG Version: 6.00 Build 0)  -->
<svg version="1.1" id="图层_1" xmlns="http://www.w3.org/2000/svg" xmlns:xlink="http://www.w3.org/1999/xlink" x="0px" y="0px"
	 viewBox="0 0 32.3 23.7" style="enable-background:new 0 0 32.3 23.7;" xml:space="preserve">
<style type="text/css">
	.st0{fill:#898989;}
	.st1{fill:#002F7B;}
	.st2{fill:#4A94BD;}
</style>
<g id="XMLID_110_">
	<g id="XMLID_113_">
		<path id="XMLID_114_" class="st1" d="M29.6,9.6c-2.1-2.1-7.1-7.1-7.5-7.5c-0.5-0.5-0.9-1.1-2-1c-0.4,0.1-0.5,0.1-0.8,0.3
			c-0.3,0.2-8.7,8.7-8.8,8.8c-0.5,0.5-1.2,1.1-0.9,2.2c0.1,0.3,0.2,0.4,0.4,0.7c0.6,0.6,1.6,1.6,1.6,1.6L11,15.3l4,0.6l-0.7-4
			l-0.6,0.6l-0.5-0.6l7.2-7.2l7.2,7.2l-7.2,7.2l-2.1-2.1L16,19.3c0,0,2.1,2.1,2.6,2.6c0.3,0.3,0.6,0.7,1,0.8
			c0.3,0.1,0.8,0.2,1.2,0.1c0.6-0.2,0.9-0.6,1.3-0.9c0.5-0.5,7.6-7.6,8.1-8.1c0.3-0.3,0.6-0.5,0.8-0.8C31.9,11.5,30.3,10.4,29.6,9.6
			z"/>
	</g>
	<g id="XMLID_111_">
		<path id="XMLID_112_" class="st2" d="M2.3,14.4c2.1,2.1,7.1,7.1,7.5,7.5c0.5,0.5,0.9,1.1,2,1c0.4-0.1,0.5-0.1,0.8-0.3
			c0.3-0.2,8.8-8.7,8.9-8.8c0.5-0.5,1.2-1.1,1-2.2c-0.1-0.3-0.2-0.4-0.4-0.7c-0.6-0.6-1.6-1.6-1.6-1.6L21,8.8l-4-0.6l0.7,4l0.6-0.6
			l0.5,0.6l-7.2,7.2L4.4,12l7.2-7.2l2.1,2.1l2.2-2.2c0,0-2.1-2.1-2.6-2.6c-0.3-0.3-0.6-0.7-1-0.8c-0.3-0.1-0.8-0.2-1.2-0.1
			c-0.6,0.2-1.3,0.9-1.3,0.9s-7.6,7.6-8.1,8.1C1.5,10.5,1.2,10.7,1,11C0,12.5,1.6,13.6,2.3,14.4z"/>
	</g>
</g>
</svg>
